<svg width="24" height="24" viewBox="0 0 24 24" fill="none" xmlns="http://www.w3.org/2000/svg">
  <path d="M21.62 11.108L12.892 2.381a1.317 1.317 0 0 0-1.862 0L9.477 3.935l2.358 2.358c.559-.188 1.2-.062 1.645.383.449.451.575 1.094.381 1.658l2.273 2.273c.564-.194 1.207-.068 1.658.381a1.248 1.248 0 1 1-1.766 1.766c-.472-.472-.594-1.164-.367-1.746L13.402 8.75v6.286a1.248 1.248 0 1 1-.996 0V8.75l-.367 1.746c.227.582.105 1.274-.367 1.746a1.248 1.248 0 1 1-1.766-1.766c.451-.449 1.094-.575 1.658-.381l2.273-2.273c-.194-.564-.068-1.207.381-1.658.445-.445 1.086-.571 1.645-.383L13.505 3.935l-1.553-1.554a1.317 1.317 0 0 0-1.862 0L1.38 11.108a1.317 1.317 0 0 0 0 1.862l8.728 8.728a1.317 1.317 0 0 0 1.862 0l8.651-8.651a1.318 1.318 0 0 0-.001-1.939z" fill="#F05032"/>
  <circle cx="18" cy="6" r="4" fill="#007ACC" stroke="white" stroke-width="1"/>
  <path d="M16 6h4M18 4v4" stroke="white" stroke-width="1.5" stroke-linecap="round"/>
</svg>